<?xml version="1.0" standalone="no"?>
<!DOCTYPE svg PUBLIC "-//W3C//DTD SVG 20010904//EN"
 "http://www.w3.org/TR/2001/REC-SVG-20010904/DTD/svg10.dtd">
<svg version="1.0" xmlns="http://www.w3.org/2000/svg"
 width="491.000000pt" height="301.000000pt" viewBox="0 0 491.000000 301.000000"
 preserveAspectRatio="xMidYMid meet">

<g transform="translate(0.000000,301.000000) scale(0.100000,-0.100000)"
fill="#000000" stroke="none">
<path d="M2431 2851 c-20 -21 -66 -70 -102 -109 -52 -54 -67 -78 -72 -109 -8
-46 -31 -73 -41 -47 -4 10 -16 15 -35 12 -18 -1 -37 4 -49 15 -26 24 -75 19
-81 -7 -5 -29 -74 -116 -125 -159 -33 -27 -49 -49 -57 -80 -6 -23 -20 -54 -30
-68 -10 -15 -19 -33 -19 -41 0 -7 -10 -33 -23 -58 -18 -37 -26 -44 -46 -42
-14 2 -30 -2 -35 -10 -6 -7 -24 -13 -41 -13 -28 0 -30 -3 -35 -45 l-5 -45 -14
34 c-28 65 -108 176 -171 236 l-64 60 0 60 c-1 60 -1 60 -31 60 -28 0 -30 -3
-33 -38 -2 -21 -6 -37 -10 -35 -4 2 -30 12 -57 22 -63 25 -61 22 -41 45 12 13
16 32 14 58 -3 33 -6 38 -30 41 -22 3 -30 -2 -37 -21 -6 -14 -15 -28 -20 -32
-6 -3 -11 -16 -11 -28 0 -21 -4 -22 -82 -22 -46 0 -100 -4 -120 -8 l-37 -8 -3
43 c-3 40 -5 43 -33 43 -29 0 -30 -1 -33 -55 l-3 -55 -60 -34 c-375 -216 -521
-807 -310 -1256 123 -262 323 -416 561 -432 208 -14 420 105 555 312 l50 76
31 -98 30 -98 35 0 34 0 6 130 c4 72 8 186 9 255 l2 125 14 -60 c52 -219 132
-365 267 -491 185 -173 406 -210 622 -104 221 109 383 374 426 698 11 82 7
280 -7 344 -5 23 -3 27 22 30 22 2 30 9 32 28 10 93 25 91 47 -6 20 -92 19
-380 -2 -406 -10 -11 -11 -75 -5 -273 l7 -259 32 -9 c63 -18 63 -19 64 205 l0
203 20 -70 c94 -329 340 -565 589 -565 135 0 245 52 366 174 80 80 97 104 147
206 161 325 169 736 21 1060 -20 44 -35 82 -33 84 2 2 14 7 27 10 20 7 22 4
22 -28 0 -75 34 -112 70 -76 31 31 28 126 -4 171 -38 53 -67 119 -78 181 -12
69 -26 91 -61 91 -20 0 -28 6 -36 29 -15 42 -60 37 -81 -9 -16 -35 -29 -33
-49 6 -12 21 -18 23 -59 17 -53 -6 -63 -2 -79 34 -22 51 -127 58 -140 10 -5
-18 -7 -18 -26 -5 -11 8 -30 38 -42 66 -36 90 -93 86 -122 -8 l-18 -58 -5 60
c-5 65 -14 85 -34 85 -8 0 -19 7 -26 15 -14 17 -56 20 -65 5 -3 -5 -10 -37
-16 -69 -10 -67 -44 -152 -63 -163 -7 -4 -19 -29 -25 -55 -25 -100 -29 -110
-30 -85 -1 12 -15 49 -31 82 -25 49 -35 60 -55 60 -18 0 -28 -8 -36 -27 -5
-14 -12 -143 -16 -287 -4 -204 -10 -276 -24 -331 l-18 -70 -1 80 c-1 44 -7
118 -13 165 l-12 85 -33 3 c-18 2 -40 -2 -47 -8 -12 -10 -16 -7 -24 12 -11 28
-29 45 -56 50 -18 3 -20 13 -25 118 l-5 115 -48 3 c-35 2 -49 -1 -53 -12 -9
-24 -20 -19 -34 17 -7 17 -23 55 -35 82 -12 28 -25 57 -29 65 -3 8 -10 22 -15
30 -5 8 -12 23 -15 33 -4 12 -16 17 -45 17 -37 0 -44 -4 -81 -56 -37 -49 -45
-55 -73 -52 l-32 3 -5 125 c-3 69 -9 131 -13 138 -5 7 -29 12 -59 12 -46 0
-54 -4 -87 -39z m87 -142 l-3 -94 -75 -3 c-51 -2 -80 -8 -92 -19 -17 -15 -18
-14 -18 11 0 20 17 44 63 90 34 35 73 78 86 96 14 19 27 28 33 22 5 -5 7 -51
6 -103z m1332 -152 c0 -3 -9 -7 -20 -10 -17 -4 -20 0 -20 30 l0 36 20 -26 c11
-14 20 -27 20 -30z m-1333 -32 c3 -9 4 -17 2 -19 -2 -1 -37 -1 -77 2 -64 4
-70 6 -55 18 26 19 122 18 130 -1z m85 -7 c-7 -7 -12 -8 -12 -2 0 14 12 26 19
19 2 -3 -1 -11 -7 -17z m199 -33 c10 -27 18 -71 18 -98 l1 -47 -55 45 c-31 25
-59 45 -63 45 -4 0 -16 7 -26 15 -18 14 -18 16 8 55 24 37 31 41 63 38 34 -3
38 -7 54 -53z m779 -16 c7 -23 3 -32 -21 -55 l-30 -28 16 43 c8 24 15 55 16
70 1 25 2 23 19 -30z m230 12 c0 -6 -11 -23 -24 -38 -22 -25 -25 -26 -31 -10
-5 11 -1 25 10 37 19 21 45 27 45 11z m201 -1 c10 -6 25 -26 33 -45 16 -39 52
-53 85 -35 19 10 29 2 100 -69 64 -65 87 -98 129 -183 93 -187 131 -379 118
-598 -15 -278 -104 -500 -260 -655 -163 -162 -328 -196 -512 -105 -300 148
-469 630 -378 1080 13 68 22 90 45 112 20 18 29 37 29 58 0 18 6 33 15 37 19
7 40 47 49 93 14 68 57 140 124 200 36 33 68 60 72 60 4 0 11 -15 14 -34 4
-18 15 -41 26 -51 43 -39 142 13 176 92 12 28 18 32 42 27 19 -4 32 -1 41 10
16 19 25 20 52 6z m-1931 -34 c0 -19 4 -37 8 -40 5 -3 -28 -42 -72 -88 -53
-54 -98 -113 -128 -168 -27 -47 -48 -77 -48 -68 0 21 56 160 81 201 10 18 19
40 19 50 0 17 115 144 133 146 4 1 7 -14 7 -33z m418 8 c18 -5 22 -13 22 -50
0 -33 5 -46 20 -54 32 -17 74 -9 78 15 7 47 10 47 62 19 64 -35 184 -160 233
-244 96 -165 132 -317 131 -545 -1 -139 -5 -173 -28 -260 -110 -416 -426 -653
-734 -549 -102 34 -158 71 -239 159 -77 82 -122 152 -162 252 -158 388 -75
860 196 1113 68 64 169 120 250 139 45 11 139 13 171 5z m-1510 -33 c-9 -15
-9 -23 1 -35 30 -37 77 -5 52 35 -10 17 -8 19 28 19 25 0 41 -5 45 -15 4 -10
18 -14 49 -13 91 4 248 -104 342 -236 57 -80 115 -202 115 -241 0 -38 -26
-140 -46 -179 -20 -42 -19 -356 2 -481 15 -91 15 -93 -7 -136 -137 -271 -402
-416 -644 -354 -233 59 -413 265 -492 564 -23 84 -26 116 -26 256 0 140 3 172
26 256 59 222 171 392 327 493 30 20 57 36 61 36 4 0 9 -9 12 -21 4 -16 12
-20 34 -17 23 2 29 8 31 35 3 26 9 34 30 39 15 3 32 7 37 9 28 9 35 5 23 -14z
m1962 -51 c35 -5 35 -5 38 -63 2 -45 0 -57 -12 -57 -24 0 -46 11 -46 24 0 6
-9 22 -20 36 -22 28 -28 86 -8 74 7 -4 28 -10 48 -14z m44 -231 c4 -23 5 -43
3 -45 -2 -2 -13 17 -25 41 -21 43 -21 45 -3 45 14 0 20 -10 25 -41z m96 -27
c0 -21 -2 -24 -10 -12 -13 20 -13 53 0 45 6 -3 10 -18 10 -33z m-1324 -306
c-3 -11 -8 -56 -12 -99 -4 -43 -10 -80 -14 -82 -4 -2 -10 28 -14 68 -4 40 -9
88 -12 108 -6 36 -6 36 26 31 26 -4 31 -8 26 -26z m-90 -241 c-3 -66 -12 -147
-19 -180 l-14 -60 -8 67 c-10 89 -1 293 15 343 l13 40 9 -45 c5 -25 7 -99 4
-165z m8 -374 l-7 -26 -7 27 c-5 16 -3 43 3 65 l12 38 3 -39 c2 -22 0 -51 -4
-65z"/>
<path d="M3559 2014 c-17 -21 0 -49 32 -49 27 0 37 28 19 50 -16 19 -34 19
-51 -1z"/>
<path d="M4149 1954 c-17 -21 0 -49 32 -49 27 0 37 28 19 50 -16 19 -34 19
-51 -1z"/>
<path d="M3569 1433 c-20 -52 18 -133 61 -133 9 0 35 -9 58 -20 36 -18 61 -20
206 -20 161 0 165 1 194 25 17 14 42 25 56 25 14 0 35 9 46 20 45 45 -31 87
-103 56 -21 -8 -37 -20 -37 -25 0 -7 -53 -11 -153 -11 -173 0 -247 15 -247 52
0 59 -61 82 -81 31z"/>
<path d="M2109 1934 c-17 -21 0 -49 32 -49 27 0 37 28 19 50 -16 19 -34 19
-51 -1z"/>
<path d="M2729 1934 c-17 -21 0 -49 32 -49 27 0 37 28 19 50 -16 19 -34 19
-51 -1z"/>
<path d="M2058 1244 c-14 -13 -8 -51 10 -66 39 -33 178 -50 378 -46 104 2 197
8 207 12 28 13 38 40 23 61 -12 17 -31 18 -222 16 -115 -1 -236 3 -269 9 -33
6 -73 13 -90 16 -16 3 -33 2 -37 -2z"/>
<path d="M769 1994 c-17 -21 0 -49 32 -49 27 0 37 28 19 50 -16 19 -34 19 -51
-1z"/>
<path d="M1089 1994 c-17 -21 0 -49 32 -49 27 0 37 28 19 50 -16 19 -34 19
-51 -1z"/>
<path d="M701 1588 c-14 -38 3 -61 87 -118 172 -115 206 -134 307 -162 119
-33 139 -34 165 -8 42 42 7 61 -188 101 -24 5 -69 25 -100 45 -158 102 -193
127 -202 145 -15 27 -58 25 -69 -3z"/>
<path d="M2064 612 c-132 -62 -137 -247 -7 -304 56 -25 131 -21 171 9 42 31
38 48 -4 19 -41 -27 -91 -34 -125 -16 -67 37 -73 210 -7 265 51 43 133 23 158
-39 7 -16 9 -11 9 24 1 42 -1 45 -26 47 -16 1 -50 4 -78 8 -38 4 -60 1 -91
-13z"/>
<path d="M3115 616 c-88 -40 -120 -144 -72 -236 33 -65 66 -85 142 -85 102 0
156 53 163 158 3 52 0 67 -20 96 -12 19 -35 43 -50 54 -34 26 -122 33 -163 13z
m107 -17 c44 -23 63 -148 35 -229 -24 -69 -101 -79 -134 -17 -23 44 -23 170 0
214 23 43 57 54 99 32z"/>
<path d="M3805 616 c-88 -40 -120 -144 -72 -236 33 -65 66 -85 142 -85 102 0
156 53 163 158 3 52 0 67 -20 96 -12 19 -35 43 -50 54 -34 26 -122 33 -163 13z
m107 -17 c44 -23 63 -148 35 -229 -24 -69 -101 -79 -134 -17 -23 44 -23 170 0
214 23 43 57 54 99 32z"/>
<path d="M4185 616 c-71 -31 -114 -114 -102 -192 18 -109 153 -164 280 -115
24 9 27 16 27 55 0 32 5 48 18 55 12 8 -4 10 -63 10 -59 0 -74 -3 -57 -10 20
-8 23 -15 20 -56 -3 -48 -3 -48 -41 -51 -51 -4 -91 35 -101 100 -12 79 13 166
53 188 48 25 120 0 146 -50 9 -17 18 -30 20 -30 3 0 5 25 5 56 0 48 -2 55 -14
45 -11 -9 -25 -10 -53 -2 -50 14 -101 13 -138 -3z"/>
<path d="M680 605 c-17 -21 -2 -50 26 -50 14 0 19 7 19 30 0 34 -24 45 -45 20z"/>
<path d="M770 605 c-17 -21 -2 -50 26 -50 14 0 19 7 19 30 0 34 -24 45 -45 20z"/>
<path d="M1321 573 c1 -27 4 -39 6 -28 8 33 34 55 65 55 l28 0 0 -140 c0 -136
-1 -141 -22 -150 -17 -6 1 -9 62 -9 61 0 79 3 63 9 -22 9 -23 14 -23 150 l0
140 28 0 c28 0 54 -20 65 -50 3 -8 6 4 6 28 l1 42 -140 0 -140 0 1 -47z"/>
<path d="M1640 613 c34 -12 40 -36 40 -153 0 -117 -6 -141 -40 -153 -8 -3 48
-5 125 -4 l140 2 5 47 c6 50 4 52 -14 16 -16 -31 -54 -49 -101 -46 l-40 3 -3
63 c-2 46 0 62 10 62 22 0 37 -14 52 -50 15 -34 15 -33 15 60 -1 79 -2 90 -11
65 -15 -41 -27 -55 -49 -55 -17 0 -19 8 -19 65 l0 65 43 0 c47 -1 72 -15 86
-51 8 -21 10 -17 10 24 l1 47 -132 -1 c-73 0 -126 -3 -118 -6z"/>
<path d="M2318 610 c21 -9 22 -13 22 -150 0 -137 -1 -141 -22 -150 -17 -6 1
-9 62 -9 61 0 79 3 63 9 -21 8 -23 16 -23 75 l0 65 55 0 55 0 0 -65 c0 -59 -2
-67 -22 -75 -17 -6 1 -9 62 -9 61 0 79 3 63 9 -22 9 -23 13 -23 150 0 137 1
141 23 150 16 6 -2 9 -63 9 -61 0 -79 -3 -62 -9 20 -8 22 -16 22 -75 l0 -65
-55 0 -55 0 0 65 c0 59 2 67 23 75 16 6 -2 9 -63 9 -61 0 -79 -3 -62 -9z"/>
<path d="M2684 599 c25 -20 26 -23 26 -138 0 -118 -6 -142 -40 -154 -8 -3 12
-5 45 -6 46 0 55 2 37 9 -31 13 -33 22 -30 141 l3 104 105 -130 105 -130 6
150 c3 83 7 151 7 153 1 1 12 7 25 12 17 7 8 9 -38 9 -52 -1 -56 -2 -32 -11
27 -9 27 -11 27 -94 0 -46 -2 -84 -5 -84 -2 0 -39 43 -80 95 l-76 95 -56 0
-56 0 27 -21z"/>
<path d="M3398 610 c21 -9 22 -13 22 -150 0 -137 -1 -141 -22 -150 -16 -6 24
-9 118 -9 159 -1 154 -3 153 79 l0 35 -13 -30 c-23 -51 -48 -67 -102 -63 l-49
3 0 140 0 139 25 7 c14 4 -13 7 -65 7 -63 1 -83 -2 -67 -8z"/>
<path d="M4458 602 c10 -10 40 -58 66 -105 40 -75 47 -94 44 -134 -3 -41 -6
-48 -28 -54 -14 -4 18 -7 70 -7 52 0 86 3 75 5 -35 9 -45 24 -45 71 0 36 10
62 46 124 25 43 57 87 71 98 l26 20 -54 -1 c-30 -1 -46 -3 -36 -6 9 -2 17 -12
17 -20 0 -15 -67 -143 -75 -143 -7 0 -75 129 -75 143 0 9 8 18 18 20 9 3 -18
5 -60 6 -75 1 -77 0 -60 -17z"/>
<path d="M705 510 c-50 -20 -61 -75 -15 -75 22 0 25 4 22 33 -2 28 1 32 22 32
24 0 36 -17 36 -48 0 -10 -22 -29 -50 -45 -56 -30 -81 -68 -63 -95 15 -25 52
-27 83 -4 26 20 27 20 38 1 13 -21 39 -24 62 -8 11 8 12 12 3 16 -9 3 -13 31
-13 88 0 75 -2 85 -22 99 -24 17 -70 20 -103 6z m52 -178 c-37 -36 -51 27 -14
66 l22 24 3 -38 c2 -23 -2 -42 -11 -52z"/>
<path d="M944 509 c-71 -35 -71 -174 1 -207 75 -34 145 15 145 103 0 87 -73
139 -146 104z m77 -49 c4 -19 4 -60 1 -90 -6 -47 -10 -55 -29 -58 -31 -5 -46
37 -40 110 6 68 12 80 40 76 15 -2 23 -13 28 -38z"/>
<path d="M1151 498 c-34 -35 -26 -61 31 -111 36 -31 49 -49 45 -61 -10 -26
-44 -19 -71 17 -25 31 -26 32 -25 7 1 -44 12 -55 58 -58 34 -3 48 1 67 19 40
37 32 72 -25 116 -49 38 -60 56 -41 68 17 11 44 -4 62 -32 l17 -28 1 40 0 40
-49 3 c-41 2 -54 -2 -70 -20z"/>
</g>
</svg>
